/* XPM */
static char *frmMain_tbEntry_XPM[]={
/* frmMain_tbEntry */
"16 16 72 2",
"      c None",
" 0    c #000000",
" 1    c #097205",
" 2    c #178111",
" 3    c #097206",
" 4    c #3C8235",
" 5    c #86C682",
" 6    c #84C780",
" 7    c #408238",
" 8    c #41923E",
" 9    c #99DC9A",
" a    c #95DB97",
" b    c #459142",
" c    c #3C9135",
" d    c #89D486",
" e    c #86D382",
" f    c #3E9038",
" g    c #3B922F",
" h    c #83D477",
" i    c #80D373",
" j    c #3D9032",
" k    c #057C02",
" l    c #098107",
" m    c #098005",
" n    c #0B8305",
" o    c #087805",
" p    c #4AA335",
" q    c #7DD368",
" r    c #7BD264",
" s    c #4BA238",
" t    c #087705",
" u    c #098305",
" v    c #098205",
" w    c #058002",
" x    c #2C9D27",
" y    c #7FD171",
" z    c #7DD16A",
" A    c #7FD268",
" B    c #82D866",
" C    c #7BD35C",
" D    c #76D054",
" E    c #73CF51",
" F    c #76D155",
" G    c #77D559",
" H    c #70CD56",
" I    c #69C954",
" J    c #64C654",
" K    c #229B1D",
" L    c #319F27",
" M    c #82D366",
" N    c #82D461",
" O    c #84D75F",
" P    c #86D85B",
" Q    c #78D44B",
" R    c #75D347",
" S    c #72D243",
" T    c #79D44C",
" U    c #7FD552",
" V    c #78D24F",
" W    c #71CE4D",
" X    c #6CCA4D",
" Y    c #259D1A",
" Z    c #007F00",
" &    c #78D83C",
"0     c #76D839",
"00    c #7BE12A",
"01    c #7AE128",
"02    c #7CEF00",
"03    c #ADFB47",
"04    c #ADFC47",
"05    c #89E236",
"06    c #8BE436",
"   0 0 0 0 0 1 2 2 3 0 0 0 0 0  ",
"   0 0 0 0 0 4 5 6 7 0 0 0 0 0  ",
"   0 0 0 0 0 8 9 a b 0 0 0 0 0  ",
"   0 0 0 0 0 c d e f 0 0 0 0 0  ",
"   0 0 0 0 0 g h i j 0 0 0 0 0  ",
"   k l m n o p q r s t u v u w  ",
"   x y z A B C D E F G H I J K  ",
"   L M N O P Q R S T U V W X Y  ",
"   Z Z Z Z Z Z &0  Z Z Z Z Z Z  ",
"   0 0 0 0 0 Z0001 Z 0 0 0 0 0  ",
"   0 0 0 0 0 Z0202 Z 0 0 0 0 0  ",
"   0 0 0 0 0 Z0304 Z 0 0 0 0 0  ",
"   0 0 0 0 0 Z0506 Z 0 0 0 0 0  ",
"   0 0 0 0 0 Z Z Z Z 0 0 0 0 0  ",
"                                ",
"                                "};

