/* XPM */
static char *frmMain_tbPerson_XPM[]={
/* frmMain_tbPerson */
"16 16 204 2",
"      c None",
" 0    c #72480C",
" 1    c #754A0C",
" 2    c #9F6B07",
" 3    c #A97305",
" 4    c #C18813",
" 5    c #794F25",
" 6    c #774E24",
" 7    c #815520",
" 8    c #805521",
" 9    c #B77B07",
" a    c #C18307",
" b    c #6C420B",
" c    c #835405",
" d    c #9A6504",
" e    c #B47E15",
" f    c #CE9E3D",
" g    c #7F5425",
" h    c #794F20",
" i    c #7B5227",
" j    c #B17709",
" k    c #B27809",
" l    c #B67B04",
" m    c #774800",
" n    c #5B2B00",
" o    c #875600",
" p    c #B18532",
" q    c #DEB459",
" r    c #815318",
" s    c #996300",
" t    c #986303",
" u    c #945F00",
" v    c #905B00",
" w    c #955A00",
" x    c #FFEEC4",
" y    c #AB9170",
" z    c #430F00",
" A    c #723E00",
" B    c #AE8B47",
" C    c #B58628",
" D    c #955F00",
" E    c #996404",
" F    c #744B1C",
" G    c #6C4319",
" H    c #855000",
" I    c #FFFFE4",
" J    c #CCAE8A",
" K    c #562B00",
" L    c #744704",
" M    c #855D2D",
" N    c #734A1C",
" O    c #764D1E",
" P    c #6B3800",
" Q    c #734A24",
" R    c #673E1A",
" S    c #A17D4A",
" T    c #FFF7C6",
" U    c #FFDFB2",
" V    c #FFFFE3",
" W    c #C19B60",
" X    c #613300",
" Y    c #764E2F",
" Z    c #764E2B",
" &    c #A1BCFF",
"0     c #7C3E00",
"00    c #7A4604",
"01    c #6A4119",
"02    c #6D4725",
"03    c #FFF0AE",
"04    c #FFCB89",
"05    c #FFCF9C",
"06    c #FFFDC3",
"07    c #AD8558",
"08    c #724923",
"09    c #7A4709",
"0a    c #7D490B",
"0b    c #7B460D",
"0c    c #7D480E",
"0d    c #A9AEC3",
"0e    c #040F96",
"0f    c #576FDA",
"0g    c #AB6B05",
"0h    c #7D4803",
"0i    c #FFDB9B",
"0j    c #FFDA93",
"0k    c #FFC37D",
"0l    c #FFFDAE",
"0m    c #9E6F36",
"0n    c #854700",
"0o    c #5E74E0",
"0p    c #5663BD",
"0q    c #657AAE",
"0r    c #5769A9",
"0s    c #14147C",
"0t    c #7577A6",
"0u    c #000694",
"0v    c #1831B9",
"0w    c #8A5813",
"0x    c #FFC27B",
"0y    c #FFD988",
"0z    c #966431",
"0A    c #7D603A",
"0B    c #2136BF",
"0C    c #7070A6",
"0D    c #5C5EA0",
"0E    c #6A7293",
"0F    c #5D638F",
"0G    c #7476A7",
"0H    c #000073",
"0I    c #13177F",
"0J    c #9CA6CB",
"0K    c #A68762",
"0L    c #96764C",
"0M    c #E7EBEC",
"0N    c #2432A6",
"0O    c #171A81",
"0P    c #6767A0",
"0Q    c #C0C6CE",
"0R    c #000072",
"0S    c #51568D",
"0T    c #BEC2C7",
"0U    c #B6B8C5",
"0V    c #BABFD6",
"0W    c #CDDBF9",
"0X    c #C7D5F9",
"0Y    c #DCE5F3",
"0Z    c #D3D4DD",
"0&    c #F6F9F0",
"1     c #7877B0",
"10    c #393C8B",
"11    c #717A94",
"12    c #070576",
"13    c #B8B9C9",
"14    c #B3BBC2",
"15    c #8D94AB",
"16    c #9CA0BA",
"17    c #A8ABC1",
"18    c #B1B0C5",
"19    c #BEBFD1",
"1a    c #C1C2D2",
"1b    c #D3D5DF",
"1c    c #D5D5E1",
"1d    c #191A76",
"1e    c #61678E",
"1f    c #2A2B87",
"1g    c #ADAFC4",
"1h    c #848BA6",
"1i    c #9CA1BB",
"1j    c #AAACC6",
"1k    c #BABDD2",
"1l    c #C8CAD9",
"1m    c #CFD1E3",
"1n    c #D4D5E2",
"1o    c #D7DAE4",
"1p    c #E5E5ED",
"1q    c #DADCE5",
"1r    c #858AAA",
"1s    c #3C4088",
"1t    c #848CA2",
"1u    c #34358B",
"1v    c #969DB1",
"1w    c #B0B5BF",
"1x    c #BFC3CF",
"1y    c #CFD2DC",
"1z    c #E4E6EA",
"1A    c #F4F5F6",
"1B    c #FEFDFC",
"1C    c #FDFEFD",
"1D    c #FBFCFC",
"1E    c #DEE0E6",
"1F    c #ADB1C2",
"1G    c #ABB1B8",
"1H    c #47498F",
"1I    c #41458F",
"1J    c #4E5096",
"1K    c #7274A2",
"1L    c #515499",
"1M    c #5E5FA2",
"1N    c #6467A5",
"1O    c #6D6EAD",
"1P    c #7373B2",
"1Q    c #7575AF",
"1R    c #7172B1",
"1S    c #6668A7",
"1T    c #5E5DA2",
"1U    c #56569D",
"1V    c #8184AD",
"1W    c #5A5D9A",
"1X    c #7175A1",
"1Y    c #A2A5C0",
"1Z    c #6A6DA5",
"1&    c #6F72A4",
"2     c #8183B3",
"20    c #8D8EBD",
"21    c #9B9BC7",
"22    c #A09EC9",
"23    c #9999C7",
"24    c #9C9CC8",
"25    c #9897C3",
"26    c #8B8DBB",
"27    c #8181B1",
"28    c #6566A2",
"29    c #7579A3",
"2a    c #8387A9",
"   0 0 0 0 1 2 3 4 5 6 7 8 8 8 8",
"   9 9 9 a b c d e f g h i i i i",
"   j j j k l m n o p q r s t t t",
"   u u u v w x y z A B C D E E E",
"   F F F G H I   J K L M N O O O",
"   P Q Q R S T U V   W X Y Z Z Z",
"   &0 000102030405060708090a0b0c",
"  0d0e0f0g0h0i0j0k0l0m0n0o0p0q0r",
"  0d0s0t0u0v0w0x0y0z0A0B0C0D0E0F",
"  0d0s0G0H0I0J0K0L0M0N0O0P0D0E0F",
"  0Q0R0S0T0U0V0W0X0Y0Z0&1 10110F",
"  12131415161718191a1b1c    1d1e",
"  1f1g1h1i1j1k1l1m1n1o1p1q1r1s1t",
"  1u1v1w1x1y1z1A1B1C1D1E1F1G1H1I",
"  1J1K1L1M1N1O1P1Q1R1S1T1U1V1W1X",
"  1Y1Z1&2 202122232425262728292a"};

