/* XPM */
static char *frmMain_tbNewEntry_XPM[]={
/* frmMain_tbNewEntry */
"16 16 78 2",
"      c None",
" 0    c #FFFF67",
" 1    c #FFFF54",
" 2    c #FF9B00",
" 3    c #FFD300",
" 4    c #FFFE4F",
" 5    c #FFFF58",
" 6    c #FFD80D",
" 7    c #FA7900",
" 8    c #FFFF95",
" 9    c #FFB400",
" a    c #FFD600",
" b    c #FFF53D",
" c    c #FFDB0B",
" d    c #FFA000",
" e    c #FFB100",
" f    c #F0D93B",
" g    c #AEBED4",
" h    c #A9B9CF",
" i    c #A4B3C9",
" j    c #FA8C00",
" k    c #FF9500",
" l    c #FF9100",
" m    c #FFFFA8",
" n    c #FF9A00",
" o    c #FFA800",
" p    c #9CABC0",
" q    c #364A64",
" r    c #FFE713",
" s    c #FF9200",
" t    c #FFDE05",
" u    c #FFBF00",
" v    c #FFF831",
" w    c #FFE31C",
" x    c #95A4B9",
" y    c #BAC5D4",
" z    c #FFFC4C",
" A    c #FFFF7F",
" B    c #93A2B7",
" C    c #FFF43E",
" D    c #FF9D00",
" E    c #FFDC02",
" F    c #FFFF99",
" G    c #FBFCFD",
" H    c #FFED2C",
" I    c #FFDB0E",
" J    c #FFAE00",
" K    c #FFE41F",
" L    c #FFED79",
" M    c #FFF49B",
" N    c #FEFEFE",
" O    c #F5F7FA",
" P    c #E9EDF5",
" Q    c #354963",
" R    c #9EAEC3",
" S    c #F9FAFC",
" T    c #EEF1F7",
" U    c #E1E7F1",
" V    c #9AA9BE",
" W    c #FCFDFE",
" X    c #F2F5F9",
" Y    c #E6EBF4",
" Z    c #DAE1EE",
" &    c #96A5BA",
"0     c #F7F8FB",
"00    c #EBEFF6",
"01    c #DFE5F0",
"02    c #D3DBEB",
"03    c #F0F3F8",
"04    c #E3E9F2",
"05    c #D8DFED",
"06    c #CBD5E7",
"07    c #DCE3EF",
"08    c #D1D9EA",
"09    c #C4CFE4",
"0a    c #D5DDEC",
"0b    c #C9D3E6",
"0c    c #BDCAE1",
"     0 1 2 3 4 5                ",
"   6 7 8 9 a 8 7 b              ",
"   c 8 7 d e 7 8 f g h i i      ",
"   j k l   m 9 n o     p q i    ",
"   a r s 3 t u v w     x y q i  ",
"   z 8 7 o 9 7 8 A     B q q q  ",
"   C 7 8 D E 8 7 F     G B B q  ",
"     H I J K L M     N O P B Q  ",
"         R           S T U B Q  ",
"         V         W X Y Z B Q  ",
"         &        0 000102 B Q  ",
"         B       G03040506 B Q  ",
"         B     N O P070809 B Q  ",
"         B     S T U0a0b0c B Q  ",
"         B   B B B B B B B B Q  ",
"         B Q Q Q Q Q Q Q Q Q Q  "};

